{
  "accessors": [
    {
      "bufferView": 2,
      "componentType": 5126,
      "count": 415,
      "max": [
        -10.348014831542969,
        10.997455596923828,
        14.375300407409668
      ],
      "min": [
        -10.3480224609375,
        -7.8811788558959961,
        -13.812158584594727
      ],
      "type": "VEC3"
    },
    {
      "bufferView": 2,
      "byteOffset": 4980,
      "componentType": 5126,
      "count": 415,
      "max": [
        -0.9999997615814209,
        0.00081369926920160651,
        5.0421152991475537e-05
      ],
      "min": [
        -1,
        -6.6618362325243652e-05,
        -3.2286625355482101e-06
      ],
      "type": "VEC3"
    },
    {
      "bufferView": 3,
      "componentType": 5126,
      "count": 415,
      "max": [
        0,
        0,
        0,
        1
      ],
      "min": [
        0,
        0,
        0,
        1
      ],
      "type": "VEC4"
    },
    {
      "bufferView": 1,
      "componentType": 5126,
      "count": 415,
      "max": [
        0,
        0
      ],
      "min": [
        0,
        0
      ],
      "type": "VEC2"
    },
    {
      "bufferView": 0,
      "componentType": 5125,
      "count": 1239,
      "max": [
        414
      ],
      "min": [
        0
      ],
      "type": "SCALAR"
    },
    {
      "bufferView": 2,
      "byteOffset": 9960,
      "componentType": 5126,
      "count": 12810,
      "max": [
        11.89900016784668,
        11.357093811035156,
        14.650189399719238
      ],
      "min": [
        -10.3480224609375,
        -9.1488771438598633,
        -13.812158584594727
      ],
      "type": "VEC3"
    },
    {
      "bufferView": 2,
      "byteOffset": 163680,
      "componentType": 5126,
      "count": 12810,
      "max": [
        0.99957871437072754,
        0.99997246265411377,
        0.99999988079071045
      ],
      "min": [
        -0.97845619916915894,
        -0.99993628263473511,
        -0.99999940395355225
      ],
      "type": "VEC3"
    },
    {
      "bufferView": 3,
      "byteOffset": 6640,
      "componentType": 5126,
      "count": 12810,
      "max": [
        0.99902677536010742,
        0.99952811002731323,
        0.86958044767379761,
        1
      ],
      "min": [
        -0.99676114320755005,
        -0.90922468900680542,
        -0.93470549583435059,
        -1
      ],
      "type": "VEC4"
    },
    {
      "bufferView": 1,
      "byteOffset": 3320,
      "componentType": 5126,
      "count": 12810,
      "max": [
        0.98408198356628418,
        0.99804002046585083
      ],
      "min": [
        0.0019910000264644623,
        0.54187697172164917
      ],
      "type": "VEC2"
    },
    {
      "bufferView": 0,
      "byteOffset": 4956,
      "componentType": 5125,
      "count": 71589,
      "max": [
        12809
      ],
      "min": [
        0
      ],
      "type": "SCALAR"
    },
    {
      "bufferView": 2,
      "byteOffset": 317400,
      "componentType": 5126,
      "count": 92,
      "max": [
        -0.11685699969530106,
        8.2351818084716797,
        9.5595121383666992
      ],
      "min": [
        -5.9407010078430176,
        -8.0165033340454102,
        -8.6640481948852539
      ],
      "type": "VEC3"
    },
    {
      "bufferView": 2,
      "byteOffset": 318504,
      "componentType": 5126,
      "count": 92,
      "max": [
        -0.34276297688484192,
        0.93908745050430298,
        0.61604017019271851
      ],
      "min": [
        -0.99962115287780762,
        -0.6637994647026062,
        -0.75351566076278687
      ],
      "type": "VEC3"
    },
    {
      "bufferView": 3,
      "byteOffset": 211600,
      "componentType": 5126,
      "count": 92,
      "max": [
        0,
        0,
        0,
        1
      ],
      "min": [
        0,
        0,
        0,
        1
      ],
      "type": "VEC4"
    },
    {
      "bufferView": 0,
      "byteOffset": 291312,
      "componentType": 5125,
      "count": 252,
      "max": [
        91
      ],
      "min": [
        0
      ],
      "type": "SCALAR"
    }
  ],
  "asset": {
    "extras": {
      "author": "Horniman Museum (https://sketchfab.com/HornimanMuseum)",
      "license": "CC-BY-NC-ND-4.0 (http://creativecommons.org/licenses/by-nc-nd/4.0/)",
      "source": "https://sketchfab.com/models/8e07519bd4b447b8acfaba8596c41152",
      "title": "Male Orangutan Skull"
    },
    "generator": "Sketchfab-3.29.3",
    "version": "2.0"
  },
  "bufferViews": [
    {
      "buffer": 0,
      "byteLength": 292320,
      "byteOffset": 0,
      "name": "floatBufferViews",
      "target": 34963
    },
    {
      "buffer": 0,
      "byteLength": 105800,
      "byteOffset": 292320,
      "byteStride": 8,
      "name": "floatBufferViews",
      "target": 34962
    },
    {
      "buffer": 0,
      "byteLength": 319608,
      "byteOffset": 398120,
      "byteStride": 12,
      "name": "floatBufferViews",
      "target": 34962
    },
    {
      "buffer": 0,
      "byteLength": 213072,
      "byteOffset": 717728,
      "byteStride": 16,
      "name": "floatBufferViews",
      "target": 34962
    }
  ],
  "buffers": [
    {
      "byteLength": 930800,
      "uri": "scene.bin"
    }
  ],
  "images": [
    {
      "uri": "textures/Texture_0_tex_0.jpg_baseColor.jpg"
    },
    {
      "uri": "textures/Texture_0_baseColor.jpg"
    }
  ],
  "materials": [
    {
      "doubleSided": true,
      "emissiveFactor": [
        0,
        0,
        0
      ],
      "name": "Texture_0",
      "pbrMetallicRoughness": {
        "baseColorFactor": [
          1,
          1,
          1,
          1
        ],
        "baseColorTexture": {
          "index": 1,
          "texCoord": 0
        },
        "metallicFactor": 0,
        "roughnessFactor": 0.59999999999999998
      }
    },
    {
      "doubleSided": true,
      "emissiveFactor": [
        0,
        0,
        0
      ],
      "name": "Texture_0_tex_0.jpg",
      "pbrMetallicRoughness": {
        "baseColorFactor": [
          1,
          1,
          1,
          1
        ],
        "baseColorTexture": {
          "index": 0,
          "texCoord": 0
        },
        "metallicFactor": 0,
        "roughnessFactor": 0.59999999999999998
      }
    },
    {
      "doubleSided": true,
      "emissiveFactor": [
        0,
        0,
        0
      ],
      "name": "Untextured",
      "pbrMetallicRoughness": {
        "baseColorFactor": [
          0.40156900000000001,
          0.40156900000000001,
          0.40156900000000001,
          1
        ],
        "metallicFactor": 0,
        "roughnessFactor": 0.59999999999999998
      }
    }
  ],
  "meshes": [
    {
      "primitives": [
        {
          "attributes": {
            "NORMAL": 1,
            "POSITION": 0,
            "TANGENT": 2,
            "TEXCOORD_0": 3
          },
          "indices": 4,
          "material": 0,
          "mode": 4
        }
      ]
    },
    {
      "primitives": [
        {
          "attributes": {
            "NORMAL": 6,
            "POSITION": 5,
            "TANGENT": 7,
            "TEXCOORD_0": 8
          },
          "indices": 9,
          "material": 1,
          "mode": 4
        }
      ]
    },
    {
      "primitives": [
        {
          "attributes": {
            "NORMAL": 11,
            "POSITION": 10,
            "TANGENT": 12
          },
          "indices": 13,
          "material": 2,
          "mode": 4
        }
      ]
    }
  ],
  "nodes": [
    {
      "children": [
        1
      ],
      "name": "RootNode (gltf orientation matrix)",
      "rotation": [
        -0.70710678118654746,
        -0,
        -0,
        0.70710678118654757
      ]
    },
    {
      "children": [
        2
      ],
      "name": "RootNode (model correction matrix)"
    },
    {
      "children": [
        3,
        4,
        5
      ],
      "name": "ape-skull.obj.cleaner"
    },
    {
      "mesh": 0,
      "name": ""
    },
    {
      "mesh": 1,
      "name": ""
    },
    {
      "mesh": 2,
      "name": ""
    }
  ],
  "samplers": [
    {
      "magFilter": 9729,
      "minFilter": 9987,
      "wrapS": 10497,
      "wrapT": 10497
    }
  ],
  "scene": 0,
  "scenes": [
    {
      "name": "OSG_Scene",
      "nodes": [
        0
      ]
    }
  ],
  "textures": [
    {
      "sampler": 0,
      "source": 0
    },
    {
      "sampler": 0,
      "source": 1
    }
  ]
}

