{
  "accessors": [
    {
      "bufferView": 2,
      "componentType": 5126,
      "count": 65532,
      "max": [
        26.65561866760254,
        40.541969299316406,
        34.51209259033203
      ],
      "min": [
        0.0,
        0.0,
        0.018166542053222656
      ],
      "type": "VEC3"
    },
    {
      "bufferView": 2,
      "byteOffset": 786384,
      "componentType": 5126,
      "count": 65532,
      "max": [
        0.9999585151672363,
        0.9998432993888855,
        0.9999620318412781
      ],
      "min": [
        -0.9999744296073914,
        -0.9999783635139465,
        -0.9999597668647766
      ],
      "type": "VEC3"
    },
    {
      "bufferView": 1,
      "componentType": 5126,
      "count": 65532,
      "max": [
        0.9998930096626282,
        0.9999390244483948
      ],
      "min": [
        6.199999916134402e-05,
        0.25009700655937195
      ],
      "type": "VEC2"
    },
    {
      "bufferView": 0,
      "componentType": 5125,
      "count": 230253,
      "type": "SCALAR"
    },
    {
      "bufferView": 2,
      "byteOffset": 1572768,
      "componentType": 5126,
      "count": 65532,
      "max": [
        26.65561866760254,
        40.541969299316406,
        34.83896255493164
      ],
      "min": [
        0.051901817321777344,
        0.08350181579589844,
        0.0
      ],
      "type": "VEC3"
    },
    {
      "bufferView": 2,
      "byteOffset": 2359152,
      "componentType": 5126,
      "count": 65532,
      "max": [
        0.9999655485153198,
        0.9998892545700073,
        0.9999809265136719
      ],
      "min": [
        -0.9999862313270569,
        -0.9999783635139465,
        -0.9999470114707947
      ],
      "type": "VEC3"
    },
    {
      "bufferView": 1,
      "byteOffset": 524256,
      "componentType": 5126,
      "count": 65532,
      "max": [
        0.9999039769172668,
        0.9999390244483948
      ],
      "min": [
        6.0999998822808266e-05,
        0.5000920295715332
      ],
      "type": "VEC2"
    },
    {
      "bufferView": 0,
      "byteOffset": 921012,
      "componentType": 5125,
      "count": 213627,
      "type": "SCALAR"
    },
    {
      "bufferView": 2,
      "byteOffset": 3145536,
      "componentType": 5126,
      "count": 1902,
      "max": [
        6.9294304847717285,
        29.99941635131836,
        30.319812774658203
      ],
      "min": [
        0.0,
        18.118717193603516,
        14.358477592468262
      ],
      "type": "VEC3"
    },
    {
      "bufferView": 2,
      "byteOffset": 3168360,
      "componentType": 5126,
      "count": 1902,
      "max": [
        0.9515680074691772,
        0.9040422439575195,
        0.9995835423469543
      ],
      "min": [
        -0.9991553425788879,
        -0.9997013807296753,
        -0.9673808813095093
      ],
      "type": "VEC3"
    },
    {
      "bufferView": 1,
      "byteOffset": 1048512,
      "componentType": 5126,
      "count": 1902,
      "max": [
        0.97188800573349,
        0.7499009966850281
      ],
      "min": [
        0.7501189708709717,
        0.5001009702682495
      ],
      "type": "VEC2"
    },
    {
      "bufferView": 0,
      "byteOffset": 1775520,
      "componentType": 5125,
      "count": 6099,
      "type": "SCALAR"
    }
  ],
  "asset": {
    "extras": {
      "author": "VibrantNebula (https://sketchfab.com/vibrantnebula)",
      "license": "CC-BY-4.0 (http://creativecommons.org/licenses/by/4.0/)",
      "source": "https://sketchfab.com/3d-models/tyrannosaurus-rex-skull-820a3a9e9daa4a5099688586e565be6c",
      "title": "Tyrannosaurus rex skull"
    },
    "generator": "Sketchfab-11.8.0",
    "version": "2.0"
  },
  "bufferViews": [
    {
      "buffer": 0,
      "byteLength": 1799916,
      "name": "floatBufferViews",
      "target": 34963
    },
    {
      "buffer": 0,
      "byteLength": 1063728,
      "byteOffset": 1799916,
      "byteStride": 8,
      "name": "floatBufferViews",
      "target": 34962
    },
    {
      "buffer": 0,
      "byteLength": 3191184,
      "byteOffset": 2863644,
      "byteStride": 12,
      "name": "floatBufferViews",
      "target": 34962
    }
  ],
  "buffers": [
    {
      "byteLength": 6054828,
      "uri": "scene.bin"
    }
  ],
  "extensionsUsed": [
    "KHR_materials_unlit"
  ],
  "images": [
    {
      "uri": "textures/model_Material_u1_v1_baseColor.jpeg"
    }
  ],
  "materials": [
    {
      "doubleSided": true,
      "extensions": {
        "KHR_materials_unlit": {}
      },
      "name": "model_Material_u1_v1",
      "pbrMetallicRoughness": {
        "baseColorTexture": {
          "index": 0
        },
        "metallicFactor": 0.0
      }
    }
  ],
  "meshes": [
    {
      "name": "Object_0",
      "primitives": [
        {
          "attributes": {
            "NORMAL": 1,
            "POSITION": 0,
            "TEXCOORD_0": 2
          },
          "indices": 3,
          "material": 0,
          "mode": 4
        }
      ]
    },
    {
      "name": "Object_1",
      "primitives": [
        {
          "attributes": {
            "NORMAL": 5,
            "POSITION": 4,
            "TEXCOORD_0": 6
          },
          "indices": 7,
          "material": 0,
          "mode": 4
        }
      ]
    },
    {
      "name": "Object_2",
      "primitives": [
        {
          "attributes": {
            "NORMAL": 9,
            "POSITION": 8,
            "TEXCOORD_0": 10
          },
          "indices": 11,
          "material": 0,
          "mode": 4
        }
      ]
    }
  ],
  "nodes": [
    {
      "children": [
        1
      ],
      "matrix": [
        0.003965047549554512,
        -0.0013252676031555494,
        0.02210395198950721,
        0.0,
        0.02170754659200469,
        -0.004201997643664689,
        -0.004145875096963626,
        0.0,
        0.004373038280831576,
        0.022060134145993615,
        0.000538196804525664,
        0.0,
        -1.2568316459655762,
        0.4367679357528692,
        -2.549999475479126,
        1.0
      ],
      "name": "Sketchfab_model"
    },
    {
      "children": [
        2,
        3,
        4
      ],
      "matrix": [
        1.0,
        0.0,
        0.0,
        0.0,
        0.0,
        1.0,
        0.0,
        0.0,
        0.0,
        0.0,
        1.0,
        0.0,
        -10.784896850585938,
        -20.789085388183594,
        2.3935041427612305,
        1.0
      ],
      "name": "model.obj.cleaner.gles"
    },
    {
      "mesh": 0,
      "name": "Object_2"
    },
    {
      "mesh": 1,
      "name": "Object_3"
    },
    {
      "mesh": 2,
      "name": "Object_4"
    }
  ],
  "samplers": [
    {
      "magFilter": 9729,
      "minFilter": 9987,
      "wrapS": 10497,
      "wrapT": 10497
    }
  ],
  "scene": 0,
  "scenes": [
    {
      "name": "Sketchfab_Scene",
      "nodes": [
        0
      ]
    }
  ],
  "textures": [
    {
      "sampler": 0,
      "source": 0
    }
  ]
}
