{
  "accessors": [
    {
      "bufferView": 2,
      "componentType": 5126,
      "count": 65532,
      "max": [
        4.7918510437011719,
        3.8003368377685547,
        2.9091620445251465
      ],
      "min": [
        1.141995906829834,
        1.4232735633850098,
        0.081934928894042969
      ],
      "type": "VEC3"
    },
    {
      "bufferView": 2,
      "byteOffset": 786384,
      "componentType": 5126,
      "count": 65532,
      "max": [
        0.99991846084594727,
        0.99996650218963623,
        0.99998676776885986
      ],
      "min": [
        -0.99995476007461548,
        -0.99998265504837036,
        -0.9999890923500061
      ],
      "type": "VEC3"
    },
    {
      "bufferView": 3,
      "componentType": 5126,
      "count": 65532,
      "max": [
        0.99999964237213135,
        0.99990636110305786,
        0.99999183416366577,
        1
      ],
      "min": [
        -0.99998682737350464,
        -0.99998563528060913,
        -0.99999743700027466,
        -1
      ],
      "type": "VEC4"
    },
    {
      "bufferView": 1,
      "componentType": 5126,
      "count": 65532,
      "max": [
        0.99650400876998901,
        0.99947100877761841
      ],
      "min": [
        0.0010550000006332994,
        0.064871996641159058
      ],
      "type": "VEC2"
    },
    {
      "bufferView": 0,
      "componentType": 5125,
      "count": 335760,
      "max": [
        65531
      ],
      "min": [
        0
      ],
      "type": "SCALAR"
    },
    {
      "bufferView": 2,
      "byteOffset": 1572768,
      "componentType": 5126,
      "count": 65532,
      "max": [
        4.8897900581359863,
        3.8000097274780273,
        2.5934879779815674
      ],
      "min": [
        1.1704598665237427,
        1.6622986793518066,
        0.017938971519470215
      ],
      "type": "VEC3"
    },
    {
      "bufferView": 2,
      "byteOffset": 2359152,
      "componentType": 5126,
      "count": 65532,
      "max": [
        0.99995797872543335,
        0.99997454881668091,
        0.99988812208175659
      ],
      "min": [
        -0.9999842643737793,
        -0.99997973442077637,
        -0.99994689226150513
      ],
      "type": "VEC3"
    },
    {
      "bufferView": 3,
      "byteOffset": 1048512,
      "componentType": 5126,
      "count": 65532,
      "max": [
        0.99999940395355225,
        0.99992984533309937,
        0.99994271993637085,
        1
      ],
      "min": [
        -0.99998682737350464,
        -0.99994635581970215,
        -0.99981403350830078,
        -1
      ],
      "type": "VEC4"
    },
    {
      "bufferView": 1,
      "byteOffset": 524256,
      "componentType": 5126,
      "count": 65532,
      "max": [
        0.99824398756027222,
        0.99992197751998901
      ],
      "min": [
        0.00016399999731220305,
        0.0048879999667406082
      ],
      "type": "VEC2"
    },
    {
      "bufferView": 0,
      "byteOffset": 1343040,
      "componentType": 5125,
      "count": 322779,
      "max": [
        65531
      ],
      "min": [
        0
      ],
      "type": "SCALAR"
    },
    {
      "bufferView": 2,
      "byteOffset": 3145536,
      "componentType": 5126,
      "count": 17477,
      "max": [
        6.0781149864196777,
        3.829103946685791,
        4.2171478271484375
      ],
      "min": [
        0,
        0,
        0
      ],
      "type": "VEC3"
    },
    {
      "bufferView": 2,
      "byteOffset": 3355260,
      "componentType": 5126,
      "count": 17477,
      "max": [
        0.99953877925872803,
        0.99984514713287354,
        0.99902623891830444
      ],
      "min": [
        -0.99976134300231934,
        -0.99997687339782715,
        -0.99991524219512939
      ],
      "type": "VEC3"
    },
    {
      "bufferView": 3,
      "byteOffset": 2097024,
      "componentType": 5126,
      "count": 17477,
      "max": [
        0.99946379661560059,
        0.99980920553207397,
        0.9988858699798584,
        1
      ],
      "min": [
        -0.99996083974838257,
        -0.99921399354934692,
        -0.99992489814758301,
        -1
      ],
      "type": "VEC4"
    },
    {
      "bufferView": 1,
      "byteOffset": 1048512,
      "componentType": 5126,
      "count": 17477,
      "max": [
        0.99808001518249512,
        0.99946701526641846
      ],
      "min": [
        0.0010389999952167273,
        0.0035170000046491623
      ],
      "type": "VEC2"
    },
    {
      "bufferView": 0,
      "byteOffset": 2634156,
      "componentType": 5125,
      "count": 69717,
      "max": [
        17476
      ],
      "min": [
        0
      ],
      "type": "SCALAR"
    }
  ],
  "asset": {
    "extras": {
      "author": "The Cuming Museum (https://sketchfab.com/cumingmuseum)",
      "license": "CC-BY-4.0 (http://creativecommons.org/licenses/by/4.0/)",
      "source": "https://sketchfab.com/models/f42a1a7ad69241ad81d29dbef11f842a",
      "title": "Tiger Skull"
    },
    "generator": "Sketchfab-3.19.5",
    "version": "2.0"
  },
  "bufferViews": [
    {
      "buffer": 0,
      "byteLength": 2913024,
      "byteOffset": 0,
      "name": "floatBufferViews",
      "target": 34963
    },
    {
      "buffer": 0,
      "byteLength": 1188328,
      "byteOffset": 2913024,
      "byteStride": 8,
      "name": "floatBufferViews",
      "target": 34962
    },
    {
      "buffer": 0,
      "byteLength": 3564984,
      "byteOffset": 4101352,
      "byteStride": 12,
      "name": "floatBufferViews",
      "target": 34962
    },
    {
      "buffer": 0,
      "byteLength": 2376656,
      "byteOffset": 7666336,
      "byteStride": 16,
      "name": "floatBufferViews",
      "target": 34962
    }
  ],
  "buffers": [
    {
      "byteLength": 10042992,
      "uri": "scene.bin"
    }
  ],
  "images": [
    {
      "uri": "textures/material_0_metallicRoughness.png"
    },
    {
      "uri": "textures/material_0_baseColor.jpeg"
    }
  ],
  "materials": [
    {
      "doubleSided": true,
      "emissiveFactor": [
        0,
        0,
        0
      ],
      "name": "material_0",
      "occlusionTexture": {
        "index": 0,
        "strength": 0.47999999999999998,
        "texCoord": 0
      },
      "pbrMetallicRoughness": {
        "baseColorFactor": [
          1,
          1,
          1,
          1
        ],
        "baseColorTexture": {
          "index": 1,
          "texCoord": 0
        },
        "metallicFactor": 0.45000000000000001,
        "metallicRoughnessTexture": {
          "index": 0,
          "texCoord": 0
        },
        "roughnessFactor": 0.59999999999999998
      }
    }
  ],
  "meshes": [
    {
      "primitives": [
        {
          "attributes": {
            "NORMAL": 1,
            "POSITION": 0,
            "TANGENT": 2,
            "TEXCOORD_0": 3
          },
          "indices": 4,
          "material": 0,
          "mode": 4
        }
      ]
    },
    {
      "primitives": [
        {
          "attributes": {
            "NORMAL": 6,
            "POSITION": 5,
            "TANGENT": 7,
            "TEXCOORD_0": 8
          },
          "indices": 9,
          "material": 0,
          "mode": 4
        }
      ]
    },
    {
      "primitives": [
        {
          "attributes": {
            "NORMAL": 11,
            "POSITION": 10,
            "TANGENT": 12,
            "TEXCOORD_0": 13
          },
          "indices": 14,
          "material": 0,
          "mode": 4
        }
      ]
    }
  ],
  "nodes": [
    {
      "children": [
        1
      ],
      "name": "RootNode (gltf orientation matrix)",
      "rotation": [
        -0.70710678118654746,
        -0,
        -0,
        0.70710678118654757
      ]
    },
    {
      "children": [
        2
      ],
      "matrix": [
        -0.56185460090637207,
        -0.64834576845169067,
        -0.51377737522125244,
        0,
        -0.5360645055770874,
        -0.1876702606678009,
        0.8230520486831665,
        0,
        -0.63004302978515625,
        0.73785340785980225,
        -0.24211175739765167,
        0,
        -3.4797000885009766,
        -7.6096601486206055,
        5.2393126487731934,
        1
      ],
      "name": "RootNode (model correction matrix)"
    },
    {
      "children": [
        3,
        4,
        5
      ],
      "matrix": [
        1,
        0,
        0,
        0,
        0,
        1,
        0,
        0,
        0,
        0,
        1,
        0,
        -3.1686239242553711,
        -8.1739997863769531,
        -1.9845659732818604,
        1
      ],
      "name": "tiger-edit.obj.cleaner.gles"
    },
    {
      "mesh": 0,
      "name": ""
    },
    {
      "mesh": 1,
      "name": ""
    },
    {
      "mesh": 2,
      "name": ""
    }
  ],
  "samplers": [
    {
      "magFilter": 9729,
      "minFilter": 9987,
      "wrapS": 10497,
      "wrapT": 10497
    }
  ],
  "scene": 0,
  "scenes": [
    {
      "name": "OSG_Scene",
      "nodes": [
        0
      ]
    }
  ],
  "textures": [
    {
      "sampler": 0,
      "source": 0
    },
    {
      "sampler": 0,
      "source": 1
    }
  ]
}

